<svg width="171" height="36" viewBox="0 0 171 36" fill="none" xmlns="http://www.w3.org/2000/svg">
<path fill-rule="evenodd" clip-rule="evenodd" d="M27.8333 18C27.8333 25.0877 22.0877 30.8333 15 30.8333C7.91234 30.8333 2.16666 25.0877 2.16666 18C2.16666 10.9123 7.91234 5.16666 15 5.16666C22.0877 5.16666 27.8333 10.9123 27.8333 18ZM30 18C30 26.2843 23.2843 33 15 33C6.71573 33 0 26.2843 0 18C0 9.71573 6.71573 3 15 3C23.2843 3 30 9.71573 30 18ZM23.2759 11.2759C23.2759 12.1329 22.5812 12.8276 21.7242 12.8276C20.8672 12.8276 20.1725 12.1329 20.1725 11.2759C20.1725 10.4189 20.8672 9.72418 21.7242 9.72418C22.5812 9.72418 23.2759 10.4189 23.2759 11.2759ZM10.4879 19.209C11.1556 21.7009 13.717 23.1797 16.2089 22.512C18.7008 21.8443 20.1796 19.2829 19.5119 16.791C18.8442 14.2991 16.2828 12.8203 13.7909 13.488C11.299 14.1557 9.82015 16.7171 10.4879 19.209ZM8.39503 19.7698C9.37244 23.4175 13.1219 25.5823 16.7696 24.6049C20.4174 23.6274 22.5821 19.878 21.6047 16.2302C20.6273 12.5825 16.8779 10.4177 13.2301 11.3952C9.58236 12.3726 7.41762 16.122 8.39503 19.7698Z" fill="url(#paint0_linear_38_2)"/>
<path d="M41.9609 28.9824C42.3255 28.9824 42.6855 28.9141 43.041 28.7773C43.3965 28.6497 43.7109 28.431 43.9844 28.1211C44.2669 27.8203 44.4948 27.4238 44.668 26.9316C44.8411 26.4395 44.9277 25.8379 44.9277 25.127C44.9277 24.3613 44.7363 23.6185 44.3535 22.8984C43.9798 22.1784 43.5059 21.472 42.9316 20.7793C42.3665 20.0775 41.7513 19.3848 41.0859 18.7012C40.4297 18.0085 39.8145 17.3066 39.2402 16.5957C38.6751 15.8757 38.2012 15.1374 37.8184 14.3809C37.4447 13.6152 37.2578 12.8177 37.2578 11.9883C37.2578 11.1589 37.4082 10.4115 37.709 9.74609C38.0189 9.07161 38.4336 8.50195 38.9531 8.03711C39.4818 7.56315 40.0924 7.19857 40.7852 6.94336C41.487 6.68815 42.2344 6.56055 43.0273 6.56055C43.875 6.56055 44.627 6.65169 45.2832 6.83398C45.9486 7.00716 46.5091 7.2487 46.9648 7.55859C47.4297 7.85938 47.7806 8.2194 48.0176 8.63867C48.2546 9.04883 48.373 9.48633 48.373 9.95117C48.373 10.1699 48.3411 10.3978 48.2773 10.6348C48.2135 10.8626 48.1133 11.0723 47.9766 11.2637C47.8398 11.4551 47.6667 11.6146 47.457 11.7422C47.2474 11.8698 47.0013 11.9336 46.7188 11.9336C46.3815 11.9336 46.1309 11.8333 45.9668 11.6328C45.8118 11.4232 45.6934 11.168 45.6113 10.8672C45.5384 10.5664 45.4746 10.2383 45.4199 9.88281C45.3652 9.51823 45.2786 9.18555 45.1602 8.88477C45.0417 8.58398 44.8639 8.33333 44.627 8.13281C44.39 7.92318 44.0436 7.81836 43.5879 7.81836C43.3418 7.81836 43.0957 7.87305 42.8496 7.98242C42.6126 8.0918 42.3939 8.26042 42.1934 8.48828C42.002 8.70703 41.847 8.98958 41.7285 9.33594C41.61 9.68229 41.5508 10.0924 41.5508 10.5664C41.5508 11.1133 41.6647 11.6465 41.8926 12.166C42.1204 12.6855 42.4212 13.2005 42.7949 13.7109C43.1686 14.2122 43.5924 14.7181 44.0664 15.2285C44.5495 15.7298 45.0371 16.2402 45.5293 16.7598C46.0306 17.2702 46.5182 17.7988 46.9922 18.3457C47.4753 18.8835 47.9036 19.444 48.2773 20.0273C48.651 20.6107 48.9518 21.2214 49.1797 21.8594C49.4076 22.4974 49.5215 23.1673 49.5215 23.8691C49.5215 24.8991 49.321 25.8197 48.9199 26.6309C48.528 27.4329 47.9902 28.1074 47.3066 28.6543C46.6322 29.2103 45.8392 29.6341 44.9277 29.9258C44.0163 30.2174 43.0456 30.3633 42.0156 30.3633C41.0859 30.3633 40.2611 30.2448 39.541 30.0078C38.8301 29.7799 38.2285 29.4746 37.7363 29.0918C37.2441 28.709 36.8704 28.2715 36.6152 27.7793C36.3691 27.2962 36.2461 26.7949 36.2461 26.2754C36.2461 26.0566 36.278 25.8242 36.3418 25.5781C36.4147 25.3229 36.515 25.0905 36.6426 24.8809C36.7793 24.6712 36.9479 24.498 37.1484 24.3613C37.349 24.2155 37.5814 24.1426 37.8457 24.1426C38.1191 24.1426 38.3379 24.2109 38.502 24.3477C38.6751 24.4844 38.8118 24.6667 38.9121 24.8945C39.0124 25.1224 39.0944 25.3822 39.1582 25.6738C39.222 25.9655 39.2904 26.2617 39.3633 26.5625C39.4362 26.8633 39.5273 27.1595 39.6367 27.4512C39.7461 27.7428 39.8965 28.0026 40.0879 28.2305C40.2793 28.4583 40.5254 28.6406 40.8262 28.7773C41.127 28.9141 41.5052 28.9824 41.9609 28.9824Z" fill="white"/>
<path d="M51.2441 20C51.2441 18.806 51.4173 17.7624 51.7637 16.8691C52.11 15.9668 52.5703 15.2148 53.1445 14.6133C53.7279 14.0117 54.4023 13.5605 55.168 13.2598C55.9336 12.959 56.7357 12.8086 57.5742 12.8086C58.4128 12.8086 59.2148 12.9499 59.9805 13.2324C60.7461 13.5059 61.416 13.9297 61.9902 14.5039C62.5736 15.0781 63.0384 15.8073 63.3848 16.6914C63.7311 17.5664 63.9043 18.6055 63.9043 19.8086C63.9043 21.0026 63.7311 22.0599 63.3848 22.9805C63.0384 23.901 62.5736 24.6758 61.9902 25.3047C61.416 25.9336 60.7461 26.4121 59.9805 26.7402C59.2148 27.0592 58.4128 27.2188 57.5742 27.2188C56.7357 27.2188 55.9336 27.0684 55.168 26.7676C54.4023 26.4577 53.7279 26.002 53.1445 25.4004C52.5703 24.7988 52.11 24.0469 51.7637 23.1445C51.4173 22.2422 51.2441 21.194 51.2441 20ZM59.6523 19.8633C59.6523 19.1341 59.625 18.4323 59.5703 17.7578C59.5247 17.0742 59.429 16.4681 59.2832 15.9395C59.1374 15.4108 58.9277 14.9915 58.6543 14.6816C58.3809 14.3626 58.0208 14.2031 57.5742 14.2031C57.1276 14.2031 56.7676 14.3717 56.4941 14.709C56.2207 15.0371 56.0111 15.4746 55.8652 16.0215C55.7194 16.5592 55.6237 17.1745 55.5781 17.8672C55.5326 18.5599 55.5098 19.2708 55.5098 20C55.5098 20.7292 55.5326 21.4447 55.5781 22.1465C55.6237 22.8392 55.7194 23.459 55.8652 24.0059C56.0111 24.5527 56.2207 24.9948 56.4941 25.332C56.7676 25.6602 57.1276 25.8242 57.5742 25.8242C58.0208 25.8242 58.3809 25.651 58.6543 25.3047C58.9277 24.9583 59.1374 24.5026 59.2832 23.9375C59.429 23.3724 59.5247 22.7344 59.5703 22.0234C59.625 21.3125 59.6523 20.5924 59.6523 19.8633Z" fill="white"/>
<path d="M75.1562 17.5391C74.8737 17.5391 74.6367 17.498 74.4453 17.416C74.2539 17.3249 74.099 17.2064 73.9805 17.0605C73.862 16.9147 73.7754 16.7552 73.7207 16.582C73.666 16.3997 73.6387 16.2129 73.6387 16.0215C73.6387 15.7754 73.6523 15.5384 73.6797 15.3105C73.7161 15.0827 73.7207 14.8776 73.6934 14.6953C73.6751 14.513 73.6068 14.3672 73.4883 14.2578C73.3698 14.1484 73.1602 14.0938 72.8594 14.0938C72.5404 14.0938 72.2031 14.1849 71.8477 14.3672C71.4922 14.5495 71.1686 14.8366 70.877 15.2285C70.5853 15.6204 70.3438 16.1263 70.1523 16.7461C69.9609 17.3568 69.8652 18.0951 69.8652 18.9609C69.8652 19.918 69.9518 20.793 70.125 21.5859C70.3073 22.3698 70.5762 23.0397 70.9316 23.5957C71.2871 24.1517 71.7292 24.5846 72.2578 24.8945C72.7865 25.1953 73.4062 25.3457 74.1172 25.3457C74.4362 25.3457 74.737 25.3092 75.0195 25.2363C75.3112 25.1634 75.5846 25.0632 75.8398 24.9355C76.0951 24.8079 76.3366 24.6621 76.5645 24.498C76.8014 24.3249 77.0293 24.1426 77.248 23.9512L77.5898 24.2793C77.3802 24.5618 77.1113 24.8717 76.7832 25.209C76.4551 25.5462 76.0586 25.8652 75.5938 26.166C75.1289 26.4577 74.5866 26.7038 73.9668 26.9043C73.347 27.0957 72.6406 27.1914 71.8477 27.1914C71.0547 27.1914 70.2799 27.041 69.5234 26.7402C68.776 26.4303 68.1107 25.9837 67.5273 25.4004C66.944 24.8171 66.4746 24.1107 66.1191 23.2812C65.7728 22.4427 65.5996 21.4902 65.5996 20.4238C65.5996 19.5944 65.7044 18.8333 65.9141 18.1406C66.1237 17.4388 66.4062 16.8053 66.7617 16.2402C67.1263 15.6751 67.5456 15.1784 68.0195 14.75C68.5026 14.3216 69.0085 13.9661 69.5371 13.6836C70.0658 13.3919 70.6035 13.1732 71.1504 13.0273C71.7064 12.8815 72.2396 12.8086 72.75 12.8086C73.4245 12.8086 74.0124 12.8861 74.5137 13.041C75.015 13.196 75.4297 13.401 75.7578 13.6562C76.0951 13.9115 76.3457 14.2077 76.5098 14.5449C76.6738 14.873 76.7559 15.2148 76.7559 15.5703C76.7559 15.8346 76.7194 16.0898 76.6465 16.3359C76.5827 16.5729 76.4824 16.7826 76.3457 16.9648C76.2181 17.138 76.054 17.2793 75.8535 17.3887C75.653 17.4889 75.4206 17.5391 75.1562 17.5391Z" fill="white"/>
<path d="M83.7969 25.7695C83.7969 25.888 83.7741 26.0339 83.7285 26.207C83.6921 26.3711 83.5964 26.5306 83.4414 26.6855C83.2956 26.8314 83.0814 26.9544 82.7988 27.0547C82.5163 27.1641 82.1335 27.2188 81.6504 27.2188C81.1673 27.2188 80.7891 27.1595 80.5156 27.041C80.2422 26.9316 80.0371 26.7995 79.9004 26.6445C79.7637 26.4896 79.6771 26.3301 79.6406 26.166C79.6133 26.002 79.5996 25.8698 79.5996 25.7695V15.2148C79.5996 14.9505 79.5358 14.7227 79.4082 14.5312C79.2897 14.3307 79.0846 14.2305 78.793 14.2305C78.638 14.2305 78.5059 14.2578 78.3965 14.3125C78.2871 14.3672 78.1686 14.4447 78.041 14.5449L77.7539 14.2031C77.9635 14.0299 78.196 13.8613 78.4512 13.6973C78.7155 13.5241 78.998 13.3737 79.2988 13.2461C79.5996 13.1185 79.9232 13.0137 80.2695 12.9316C80.6159 12.8496 80.9805 12.8086 81.3633 12.8086C81.9557 12.8086 82.416 12.8906 82.7441 13.0547C83.0723 13.2096 83.3138 13.4056 83.4688 13.6426C83.6237 13.8704 83.7148 14.1165 83.7422 14.3809C83.7786 14.6452 83.7969 14.8776 83.7969 15.0781V25.7695ZM79.1758 9.69141C79.1758 9.4362 79.2305 9.19466 79.3398 8.9668C79.4583 8.72982 79.6178 8.52474 79.8184 8.35156C80.028 8.17839 80.265 8.04167 80.5293 7.94141C80.8027 7.84115 81.099 7.79102 81.418 7.79102C81.7279 7.79102 82.015 7.84115 82.2793 7.94141C82.5527 8.04167 82.7897 8.17839 82.9902 8.35156C83.1908 8.52474 83.3457 8.72982 83.4551 8.9668C83.5736 9.19466 83.6328 9.4362 83.6328 9.69141C83.6328 9.95573 83.5736 10.2018 83.4551 10.4297C83.3457 10.6576 83.1908 10.8581 82.9902 11.0312C82.7897 11.1953 82.5527 11.3275 82.2793 11.4277C82.015 11.528 81.7279 11.5781 81.418 11.5781C81.099 11.5781 80.8027 11.528 80.5293 11.4277C80.265 11.3275 80.028 11.1953 79.8184 11.0312C79.6178 10.8581 79.4583 10.6576 79.3398 10.4297C79.2305 10.2018 79.1758 9.95573 79.1758 9.69141Z" fill="white"/>
<path d="M93.4082 19.918C93.4082 19.6901 93.3353 19.5169 93.1895 19.3984C93.0436 19.2799 92.8568 19.2207 92.6289 19.2207C92.3099 19.2207 92.0046 19.2936 91.7129 19.4395C91.4303 19.5853 91.1797 19.7995 90.9609 20.082C90.7422 20.3646 90.569 20.7155 90.4414 21.1348C90.3138 21.5449 90.25 22.0234 90.25 22.5703C90.25 23.099 90.2865 23.5365 90.3594 23.8828C90.4414 24.2292 90.5462 24.5072 90.6738 24.7168C90.8105 24.9173 90.9655 25.0586 91.1387 25.1406C91.3118 25.2227 91.4941 25.2637 91.6855 25.2637C91.9225 25.2637 92.1458 25.2044 92.3555 25.0859C92.5651 24.9583 92.7474 24.7988 92.9023 24.6074C93.0573 24.416 93.1803 24.2018 93.2715 23.9648C93.3626 23.7279 93.4082 23.4909 93.4082 23.2539V19.918ZM91.2344 13.9297C90.9245 13.9297 90.6374 13.9661 90.373 14.0391C90.1087 14.112 89.8809 14.2031 89.6895 14.3125C89.498 14.4219 89.3477 14.5449 89.2383 14.6816C89.1289 14.8092 89.0742 14.9323 89.0742 15.0508C89.0742 15.1875 89.1426 15.2878 89.2793 15.3516C89.4251 15.4062 89.5846 15.4746 89.7578 15.5566C89.931 15.6296 90.0859 15.7389 90.2227 15.8848C90.3685 16.0215 90.4414 16.2357 90.4414 16.5273C90.4414 16.7188 90.4004 16.8965 90.3184 17.0605C90.2454 17.2155 90.1406 17.3568 90.0039 17.4844C89.8763 17.6029 89.7214 17.6986 89.5391 17.7715C89.3659 17.8353 89.1836 17.8672 88.9922 17.8672C88.4818 17.8672 88.0671 17.694 87.748 17.3477C87.4382 17.0013 87.2832 16.541 87.2832 15.9668C87.2832 15.4108 87.429 14.9368 87.7207 14.5449C88.0124 14.1439 88.3906 13.8158 88.8555 13.5605C89.3294 13.3053 89.8626 13.1185 90.4551 13C91.0475 12.8724 91.64 12.8086 92.2324 12.8086C92.9434 12.8086 93.6224 12.8861 94.2695 13.041C94.9167 13.196 95.4863 13.4421 95.9785 13.7793C96.4798 14.1165 96.8763 14.5449 97.168 15.0645C97.4688 15.584 97.6191 16.2129 97.6191 16.9512V24.6758C97.6191 24.7578 97.6237 24.849 97.6328 24.9492C97.6419 25.0495 97.6647 25.1406 97.7012 25.2227C97.7376 25.3047 97.7923 25.373 97.8652 25.4277C97.9382 25.4824 98.043 25.5098 98.1797 25.5098C98.3438 25.5098 98.4941 25.4505 98.6309 25.332C98.7767 25.2044 98.9043 25.0768 99.0137 24.9492L99.3555 25.2363C99.2188 25.4277 99.0547 25.6374 98.8633 25.8652C98.6719 26.0931 98.4395 26.3073 98.166 26.5078C97.8926 26.7083 97.5736 26.877 97.209 27.0137C96.8444 27.1504 96.4297 27.2188 95.9648 27.2188C95.3906 27.2188 94.8802 27.0501 94.4336 26.7129C93.987 26.3665 93.6953 25.8379 93.5586 25.127C93.2669 25.5189 92.9616 25.847 92.6426 26.1113C92.3327 26.3757 92.0137 26.5898 91.6855 26.7539C91.3574 26.918 91.0247 27.0365 90.6875 27.1094C90.3594 27.1823 90.0267 27.2188 89.6895 27.2188C89.252 27.2188 88.8281 27.1504 88.418 27.0137C88.0078 26.877 87.6387 26.6628 87.3105 26.3711C86.9915 26.0703 86.7318 25.6829 86.5312 25.209C86.3398 24.735 86.2441 24.1562 86.2441 23.4727C86.2441 22.6432 86.4082 21.9642 86.7363 21.4355C87.0645 20.9069 87.4928 20.4648 88.0215 20.1094C88.5592 19.7448 89.1654 19.4349 89.8398 19.1797C90.5234 18.9245 91.2207 18.6556 91.9316 18.373C92.4603 18.1634 92.8431 17.8535 93.0801 17.4434C93.3262 17.0241 93.4492 16.5957 93.4492 16.1582C93.4492 15.4837 93.2487 14.946 92.8477 14.5449C92.4557 14.1348 91.918 13.9297 91.2344 13.9297Z" fill="white"/>
<path d="M105.426 25.7969C105.426 25.9154 105.403 26.0566 105.357 26.2207C105.321 26.3848 105.225 26.5397 105.07 26.6855C104.924 26.8314 104.706 26.9544 104.414 27.0547C104.132 27.1641 103.749 27.2188 103.266 27.2188C102.783 27.2188 102.404 27.1595 102.131 27.041C101.857 26.9316 101.652 26.7995 101.516 26.6445C101.388 26.4896 101.306 26.3301 101.27 26.166C101.242 26.002 101.229 25.8698 101.229 25.7695V8.13281C101.229 7.86849 101.165 7.64062 101.037 7.44922C100.919 7.2487 100.714 7.14844 100.422 7.14844C100.267 7.14844 100.13 7.17578 100.012 7.23047C99.9023 7.27604 99.7839 7.34896 99.6562 7.44922L99.3828 7.12109C99.5924 6.94792 99.8249 6.7793 100.08 6.61523C100.335 6.44206 100.613 6.29167 100.914 6.16406C101.224 6.03646 101.552 5.93164 101.898 5.84961C102.245 5.76758 102.609 5.72656 102.992 5.72656C103.585 5.72656 104.045 5.80859 104.373 5.97266C104.701 6.1276 104.943 6.32357 105.098 6.56055C105.253 6.78841 105.344 7.03451 105.371 7.29883C105.408 7.55404 105.426 7.7819 105.426 7.98242V25.7969Z" fill="white"/>
<path d="M108.297 18.4004C108.297 17.4707 108.456 16.6595 108.775 15.9668C109.104 15.265 109.541 14.6816 110.088 14.2168C110.635 13.7428 111.268 13.3919 111.988 13.1641C112.708 12.9271 113.465 12.8086 114.258 12.8086C115.051 12.8086 115.803 12.9134 116.514 13.123C117.225 13.3327 117.854 13.6562 118.4 14.0938C118.574 13.8294 118.715 13.5514 118.824 13.2598C118.934 12.9681 118.988 12.6764 118.988 12.3848C118.988 12.002 118.883 11.6966 118.674 11.4688C118.473 11.2409 118.214 11.127 117.895 11.127V10.7305C118.095 10.6667 118.273 10.612 118.428 10.5664C118.583 10.5117 118.724 10.4707 118.852 10.4434C118.979 10.416 119.107 10.3978 119.234 10.3887C119.362 10.3704 119.503 10.3613 119.658 10.3613C120.087 10.3613 120.415 10.4935 120.643 10.7578C120.87 11.0221 120.984 11.3867 120.984 11.8516C120.984 12.125 120.921 12.3984 120.793 12.6719C120.665 12.9362 120.506 13.1914 120.314 13.4375C120.123 13.6836 119.909 13.916 119.672 14.1348C119.444 14.3535 119.225 14.5449 119.016 14.709C119.398 15.1465 119.695 15.6569 119.904 16.2402C120.114 16.8236 120.219 17.4889 120.219 18.2363C120.219 19.1751 120.055 20.0046 119.727 20.7246C119.408 21.4447 118.975 22.0508 118.428 22.543C117.881 23.0352 117.247 23.4089 116.527 23.6641C115.807 23.9102 115.051 24.0332 114.258 24.0332C113.793 24.0332 113.337 23.9922 112.891 23.9102C112.444 23.8281 112.025 23.7096 111.633 23.5547C111.487 23.6641 111.359 23.8008 111.25 23.9648C111.15 24.1289 111.1 24.3112 111.1 24.5117C111.1 24.849 111.245 25.0996 111.537 25.2637C111.829 25.4277 112.216 25.5462 112.699 25.6191C113.182 25.6921 113.729 25.7376 114.34 25.7559C114.951 25.7741 115.575 25.806 116.213 25.8516C116.86 25.888 117.489 25.9655 118.1 26.084C118.71 26.1934 119.257 26.3802 119.74 26.6445C120.223 26.8997 120.611 27.2507 120.902 27.6973C121.194 28.1439 121.34 28.7227 121.34 29.4336C121.34 29.9531 121.23 30.418 121.012 30.8281C120.793 31.2474 120.497 31.612 120.123 31.9219C119.758 32.2409 119.33 32.5098 118.838 32.7285C118.355 32.9564 117.84 33.1387 117.293 33.2754C116.755 33.4212 116.204 33.526 115.639 33.5898C115.083 33.6536 114.549 33.6855 114.039 33.6855C113.109 33.6855 112.271 33.6354 111.523 33.5352C110.785 33.444 110.156 33.2982 109.637 33.0977C109.117 32.8971 108.716 32.6374 108.434 32.3184C108.151 31.9993 108.01 31.6165 108.01 31.1699C108.01 30.8509 108.083 30.5547 108.229 30.2812C108.374 30.0169 108.566 29.7708 108.803 29.543C109.049 29.3242 109.322 29.1237 109.623 28.9414C109.924 28.7682 110.229 28.6042 110.539 28.4492C110.083 28.2578 109.701 27.9661 109.391 27.5742C109.09 27.1914 108.939 26.681 108.939 26.043C108.939 25.7057 108.999 25.3958 109.117 25.1133C109.236 24.8216 109.386 24.5573 109.568 24.3203C109.76 24.0742 109.965 23.8555 110.184 23.6641C110.411 23.4635 110.63 23.2949 110.84 23.1582C110.466 22.9395 110.12 22.6751 109.801 22.3652C109.491 22.0462 109.222 21.6908 108.994 21.2988C108.775 20.8978 108.602 20.4557 108.475 19.9727C108.356 19.4896 108.297 18.9655 108.297 18.4004ZM116.104 18.291C116.104 17.7624 116.076 17.2474 116.021 16.7461C115.967 16.2448 115.871 15.7982 115.734 15.4062C115.598 15.0143 115.411 14.6999 115.174 14.4629C114.937 14.2168 114.632 14.0938 114.258 14.0938C113.884 14.0938 113.579 14.2214 113.342 14.4766C113.105 14.7227 112.918 15.0508 112.781 15.4609C112.645 15.862 112.549 16.3223 112.494 16.8418C112.439 17.3522 112.412 17.8717 112.412 18.4004C112.412 18.9382 112.439 19.4668 112.494 19.9863C112.549 20.5059 112.645 20.9707 112.781 21.3809C112.918 21.791 113.105 22.1237 113.342 22.3789C113.579 22.625 113.884 22.748 114.258 22.748C114.632 22.748 114.937 22.6159 115.174 22.3516C115.411 22.0872 115.598 21.7454 115.734 21.3262C115.871 20.8978 115.967 20.4193 116.021 19.8906C116.076 19.362 116.104 18.8288 116.104 18.291ZM118.182 30.5273C118.182 30.2357 118.068 29.9941 117.84 29.8027C117.612 29.6204 117.311 29.4701 116.938 29.3516C116.573 29.2422 116.154 29.1556 115.68 29.0918C115.215 29.0371 114.741 28.9915 114.258 28.9551C113.775 28.9277 113.305 28.9004 112.85 28.873C112.394 28.8457 111.997 28.8092 111.66 28.7637C111.469 28.9004 111.282 29.0462 111.1 29.2012C110.926 29.3652 110.771 29.5339 110.635 29.707C110.507 29.8893 110.402 30.0762 110.32 30.2676C110.238 30.4681 110.197 30.6686 110.197 30.8691C110.197 31.2155 110.298 31.5026 110.498 31.7305C110.699 31.9674 110.967 32.1543 111.305 32.291C111.651 32.4277 112.048 32.5234 112.494 32.5781C112.95 32.6328 113.428 32.6602 113.93 32.6602C114.595 32.6602 115.192 32.6009 115.721 32.4824C116.249 32.373 116.696 32.2181 117.061 32.0176C117.425 31.8262 117.703 31.6029 117.895 31.3477C118.086 31.0924 118.182 30.819 118.182 30.5273Z" fill="white"/>
<path d="M127.52 15.6934C127.866 15.1647 128.235 14.6862 128.627 14.2578C128.791 14.0755 128.969 13.8978 129.16 13.7246C129.352 13.5514 129.548 13.3965 129.748 13.2598C129.958 13.123 130.172 13.0137 130.391 12.9316C130.609 12.8496 130.828 12.8086 131.047 12.8086C131.512 12.8086 131.876 12.9499 132.141 13.2324C132.405 13.5059 132.537 13.8932 132.537 14.3945C132.537 14.7044 132.51 15.0052 132.455 15.2969C132.41 15.5794 132.314 15.9258 132.168 16.3359H131.785C131.73 16.0534 131.603 15.821 131.402 15.6387C131.202 15.4473 130.91 15.3516 130.527 15.3516C130.245 15.3516 129.967 15.4062 129.693 15.5156C129.42 15.6159 129.151 15.7435 128.887 15.8984C128.632 16.0534 128.385 16.222 128.148 16.4043C127.921 16.5866 127.711 16.7598 127.52 16.9238V25.7969C127.52 25.9154 127.501 26.0566 127.465 26.2207C127.428 26.3848 127.337 26.5397 127.191 26.6855C127.055 26.8314 126.845 26.9544 126.562 27.0547C126.289 27.1641 125.911 27.2188 125.428 27.2188C124.945 27.2188 124.562 27.1595 124.279 27.041C124.006 26.9316 123.796 26.7995 123.65 26.6445C123.505 26.4896 123.413 26.3301 123.377 26.166C123.34 26.002 123.322 25.8698 123.322 25.7695V15.2148C123.322 14.9505 123.258 14.7227 123.131 14.5312C123.012 14.3307 122.807 14.2305 122.516 14.2305C122.361 14.2305 122.229 14.2578 122.119 14.3125C122.01 14.3672 121.891 14.4447 121.764 14.5449L121.477 14.2031C121.686 14.0299 121.919 13.8613 122.174 13.6973C122.438 13.5241 122.721 13.3737 123.021 13.2461C123.322 13.1185 123.646 13.0137 123.992 12.9316C124.339 12.8496 124.703 12.8086 125.086 12.8086C125.478 12.8086 125.811 12.8633 126.084 12.9727C126.367 13.0729 126.594 13.2096 126.768 13.3828C126.95 13.5469 127.091 13.7337 127.191 13.9434C127.292 14.153 127.365 14.3672 127.41 14.5859C127.465 14.7956 127.497 15.0007 127.506 15.2012C127.515 15.3926 127.52 15.5566 127.52 15.6934Z" fill="white"/>
<path d="M140.166 19.918C140.166 19.6901 140.093 19.5169 139.947 19.3984C139.801 19.2799 139.615 19.2207 139.387 19.2207C139.068 19.2207 138.762 19.2936 138.471 19.4395C138.188 19.5853 137.938 19.7995 137.719 20.082C137.5 20.3646 137.327 20.7155 137.199 21.1348C137.072 21.5449 137.008 22.0234 137.008 22.5703C137.008 23.099 137.044 23.5365 137.117 23.8828C137.199 24.2292 137.304 24.5072 137.432 24.7168C137.568 24.9173 137.723 25.0586 137.896 25.1406C138.07 25.2227 138.252 25.2637 138.443 25.2637C138.68 25.2637 138.904 25.2044 139.113 25.0859C139.323 24.9583 139.505 24.7988 139.66 24.6074C139.815 24.416 139.938 24.2018 140.029 23.9648C140.12 23.7279 140.166 23.4909 140.166 23.2539V19.918ZM137.992 13.9297C137.682 13.9297 137.395 13.9661 137.131 14.0391C136.867 14.112 136.639 14.2031 136.447 14.3125C136.256 14.4219 136.105 14.5449 135.996 14.6816C135.887 14.8092 135.832 14.9323 135.832 15.0508C135.832 15.1875 135.9 15.2878 136.037 15.3516C136.183 15.4062 136.342 15.4746 136.516 15.5566C136.689 15.6296 136.844 15.7389 136.98 15.8848C137.126 16.0215 137.199 16.2357 137.199 16.5273C137.199 16.7188 137.158 16.8965 137.076 17.0605C137.003 17.2155 136.898 17.3568 136.762 17.4844C136.634 17.6029 136.479 17.6986 136.297 17.7715C136.124 17.8353 135.941 17.8672 135.75 17.8672C135.24 17.8672 134.825 17.694 134.506 17.3477C134.196 17.0013 134.041 16.541 134.041 15.9668C134.041 15.4108 134.187 14.9368 134.479 14.5449C134.77 14.1439 135.148 13.8158 135.613 13.5605C136.087 13.3053 136.62 13.1185 137.213 13C137.805 12.8724 138.398 12.8086 138.99 12.8086C139.701 12.8086 140.38 12.8861 141.027 13.041C141.674 13.196 142.244 13.4421 142.736 13.7793C143.238 14.1165 143.634 14.5449 143.926 15.0645C144.227 15.584 144.377 16.2129 144.377 16.9512V24.6758C144.377 24.7578 144.382 24.849 144.391 24.9492C144.4 25.0495 144.423 25.1406 144.459 25.2227C144.495 25.3047 144.55 25.373 144.623 25.4277C144.696 25.4824 144.801 25.5098 144.938 25.5098C145.102 25.5098 145.252 25.4505 145.389 25.332C145.535 25.2044 145.662 25.0768 145.771 24.9492L146.113 25.2363C145.977 25.4277 145.812 25.6374 145.621 25.8652C145.43 26.0931 145.197 26.3073 144.924 26.5078C144.65 26.7083 144.331 26.877 143.967 27.0137C143.602 27.1504 143.188 27.2188 142.723 27.2188C142.148 27.2188 141.638 27.0501 141.191 26.7129C140.745 26.3665 140.453 25.8379 140.316 25.127C140.025 25.5189 139.719 25.847 139.4 26.1113C139.09 26.3757 138.771 26.5898 138.443 26.7539C138.115 26.918 137.783 27.0365 137.445 27.1094C137.117 27.1823 136.785 27.2188 136.447 27.2188C136.01 27.2188 135.586 27.1504 135.176 27.0137C134.766 26.877 134.396 26.6628 134.068 26.3711C133.749 26.0703 133.49 25.6829 133.289 25.209C133.098 24.735 133.002 24.1562 133.002 23.4727C133.002 22.6432 133.166 21.9642 133.494 21.4355C133.822 20.9069 134.251 20.4648 134.779 20.1094C135.317 19.7448 135.923 19.4349 136.598 19.1797C137.281 18.9245 137.979 18.6556 138.689 18.373C139.218 18.1634 139.601 17.8535 139.838 17.4434C140.084 17.0241 140.207 16.5957 140.207 16.1582C140.207 15.4837 140.007 14.946 139.605 14.5449C139.214 14.1348 138.676 13.9297 137.992 13.9297Z" fill="white"/>
<path d="M159.635 25.7969C159.635 25.9154 159.617 26.0566 159.58 26.2207C159.544 26.3848 159.452 26.5397 159.307 26.6855C159.17 26.8314 158.96 26.9544 158.678 27.0547C158.395 27.1641 158.012 27.2188 157.529 27.2188C157.046 27.2188 156.663 27.1595 156.381 27.041C156.107 26.9316 155.898 26.7995 155.752 26.6445C155.615 26.4896 155.529 26.3301 155.492 26.166C155.456 26.002 155.438 25.8698 155.438 25.7695V16.1035C155.438 15.9759 155.419 15.8483 155.383 15.7207C155.346 15.584 155.292 15.4609 155.219 15.3516C155.146 15.2422 155.055 15.1556 154.945 15.0918C154.836 15.0189 154.708 14.9824 154.562 14.9824C154.316 14.9824 154.075 15.0553 153.838 15.2012C153.601 15.3379 153.378 15.4974 153.168 15.6797C152.967 15.862 152.79 16.0443 152.635 16.2266C152.489 16.4089 152.384 16.5456 152.32 16.6367V25.7969C152.32 25.9154 152.302 26.0566 152.266 26.2207C152.229 26.3848 152.138 26.5397 151.992 26.6855C151.855 26.8314 151.646 26.9544 151.363 27.0547C151.09 27.1641 150.712 27.2188 150.229 27.2188C149.745 27.2188 149.363 27.1595 149.08 27.041C148.807 26.9316 148.597 26.7995 148.451 26.6445C148.305 26.4896 148.214 26.3301 148.178 26.166C148.141 26.002 148.123 25.8698 148.123 25.7695V15.2148C148.123 14.9505 148.059 14.7227 147.932 14.5312C147.813 14.3307 147.608 14.2305 147.316 14.2305C147.161 14.2305 147.029 14.2578 146.92 14.3125C146.811 14.3672 146.692 14.4447 146.564 14.5449L146.277 14.2031C146.487 14.0299 146.719 13.8613 146.975 13.6973C147.239 13.5241 147.521 13.3737 147.822 13.2461C148.123 13.1185 148.447 13.0137 148.793 12.9316C149.139 12.8496 149.504 12.8086 149.887 12.8086C150.479 12.8086 150.939 12.9089 151.268 13.1094C151.596 13.3008 151.837 13.5332 151.992 13.8066C152.147 14.0801 152.238 14.3672 152.266 14.668C152.302 14.9596 152.32 15.2057 152.32 15.4062C152.749 14.9232 153.209 14.4902 153.701 14.1074C153.902 13.9434 154.12 13.7839 154.357 13.6289C154.604 13.474 154.854 13.3372 155.109 13.2188C155.365 13.0911 155.629 12.9909 155.902 12.918C156.176 12.8451 156.449 12.8086 156.723 12.8086C157.251 12.8086 157.702 12.9043 158.076 13.0957C158.45 13.2871 158.751 13.5195 158.979 13.793C159.206 14.0573 159.37 14.3398 159.471 14.6406C159.58 14.9323 159.635 15.1875 159.635 15.4062C160.072 14.9232 160.533 14.4902 161.016 14.1074C161.216 13.9434 161.435 13.7839 161.672 13.6289C161.909 13.474 162.155 13.3372 162.41 13.2188C162.674 13.0911 162.939 12.9909 163.203 12.918C163.477 12.8451 163.75 12.8086 164.023 12.8086C164.552 12.8086 165.003 12.9089 165.377 13.1094C165.751 13.3008 166.051 13.556 166.279 13.875C166.507 14.194 166.671 14.554 166.771 14.9551C166.881 15.3561 166.936 15.7572 166.936 16.1582V24.6211C166.936 24.7031 166.94 24.7943 166.949 24.8945C166.958 24.9857 166.981 25.0768 167.018 25.168C167.054 25.25 167.109 25.3184 167.182 25.373C167.264 25.4277 167.368 25.4551 167.496 25.4551C167.669 25.4551 167.824 25.3958 167.961 25.2773C168.098 25.1497 168.225 25.0221 168.344 24.8945L168.672 25.1816C168.544 25.373 168.376 25.5872 168.166 25.8242C167.956 26.0521 167.706 26.2708 167.414 26.4805C167.132 26.6901 166.799 26.8633 166.416 27C166.042 27.1458 165.618 27.2188 165.145 27.2188C164.743 27.2188 164.393 27.1641 164.092 27.0547C163.8 26.9544 163.549 26.8177 163.34 26.6445C163.139 26.4622 162.989 26.2526 162.889 26.0156C162.788 25.7695 162.738 25.5098 162.738 25.2363V16.1035C162.738 15.9759 162.72 15.8483 162.684 15.7207C162.647 15.584 162.592 15.4609 162.52 15.3516C162.456 15.2422 162.369 15.1556 162.26 15.0918C162.15 15.0189 162.023 14.9824 161.877 14.9824C161.631 14.9824 161.385 15.0553 161.139 15.2012C160.902 15.3379 160.678 15.4974 160.469 15.6797C160.268 15.862 160.095 16.0443 159.949 16.2266C159.803 16.4089 159.699 16.5456 159.635 16.6367V25.7969Z" fill="white"/>
<defs>
<linearGradient id="paint0_linear_38_2" x1="15" y1="3" x2="15" y2="33" gradientUnits="userSpaceOnUse">
<stop stop-color="#877EFF"/>
<stop offset="0.461458" stop-color="#685DFF"/>
<stop offset="1" stop-color="#3121FF"/>
</linearGradient>
</defs>
</svg>
