<svg width="171" height="36" viewBox="0 0 171 36" fill="none" xmlns="http://www.w3.org/2000/svg">
<path fill-rule="evenodd" clip-rule="evenodd" d="M27.8333 16C27.8333 23.0877 22.0877 28.8333 15 28.8333C7.91234 28.8333 2.16666 23.0877 2.16666 16C2.16666 8.9123 7.91234 3.16666 15 3.16666C22.0877 3.16666 27.8333 8.9123 27.8333 16ZM30 16C30 24.2843 23.2843 31 15 31C6.71573 31 0 24.2843 0 16C0 7.71573 6.71573 1 15 1C23.2843 1 30 7.71573 30 16ZM23.2759 9.2759C23.2759 10.1329 22.5812 10.8276 21.7242 10.8276C20.8672 10.8276 20.1725 10.1329 20.1725 9.2759C20.1725 8.4189 20.8672 7.72418 21.7242 7.72418C22.5812 7.72418 23.2759 8.4189 23.2759 9.2759ZM10.4879 17.209C11.1556 19.7009 13.717 21.1797 16.2089 20.512C18.7008 19.8443 20.1796 17.2829 19.5119 14.791C18.8442 12.2991 16.2828 10.8203 13.7909 11.488C11.299 12.1557 9.82015 14.7171 10.4879 17.209ZM8.39503 17.7698C9.37244 21.4175 13.1219 23.5823 16.7696 22.6049C20.4174 21.6274 22.5821 17.878 21.6047 14.2302C20.6273 10.5825 16.8779 8.4177 13.2301 9.3952C9.58236 10.3726 7.41762 14.122 8.39503 17.7698Z" fill="url(#paint0_linear_38_2)"/>
<path d="M148.256 20.948L148.294 22.126C148.294 22.8353 148.091 23.19 147.686 23.19C147.078 23.19 146.495 23.114 145.938 22.962C145.38 22.7847 145.102 22.5567 145.102 22.278C145.102 21.974 145.165 20.9733 145.292 19.276C145.444 17.5533 145.52 16.2613 145.52 15.4V13.158C145.52 11.942 145.646 11.2073 145.9 10.954C146.153 10.7007 146.596 10.3333 147.23 9.85201C147.888 9.37067 148.357 9.13 148.636 9.13C148.94 9.13 149.13 9.18067 149.206 9.28201C149.282 9.38334 149.32 9.57334 149.32 9.85201C149.32 11.1947 149.066 12.4613 148.56 13.652C148.433 15.096 148.37 16.0967 148.37 16.654C149.712 14.146 150.65 12.4993 151.182 11.714C152.119 10.2447 152.968 9.51 153.728 9.51C154.209 9.51 154.652 9.70001 155.058 10.08C155.488 10.46 155.704 10.9287 155.704 11.486C155.704 12.0433 155.691 12.5753 155.666 13.082C155.666 13.5633 155.653 13.9433 155.628 14.222C155.602 14.5007 155.59 14.678 155.59 14.754C155.691 14.5513 156.122 13.9813 156.882 13.044C157.642 12.1067 158.148 11.4987 158.402 11.22C158.68 10.9413 158.972 10.6627 159.276 10.384C159.858 9.80134 160.378 9.51 160.834 9.51C161.315 9.51 161.758 9.68734 162.164 10.042C162.594 10.3967 162.81 10.84 162.81 11.372C162.81 12.4867 162.683 14.1333 162.43 16.312C162.202 18.4653 162.088 19.8333 162.088 20.416C162.088 20.9733 162.164 21.252 162.316 21.252C162.746 21.2267 163.342 20.6947 164.102 19.656C164.862 18.592 165.609 17.2367 166.344 15.59C167.104 13.9433 167.56 13.12 167.712 13.12C167.889 13.12 167.978 13.2213 167.978 13.424C167.978 14.1333 167.61 15.2607 166.876 16.806C164.874 21.062 163.19 23.19 161.822 23.19C160.96 23.19 160.276 22.9873 159.77 22.582C159.592 22.4047 159.504 21.9487 159.504 21.214C159.504 20.454 159.567 19.238 159.694 17.566C159.846 15.8687 159.922 14.602 159.922 13.766C159.922 12.93 159.782 12.512 159.504 12.512C159.174 12.512 158.452 13.0693 157.338 14.184C156.248 15.2987 155.666 16.084 155.59 16.54C155.438 17.4013 155.362 19.2633 155.362 22.126C155.362 22.8353 155.172 23.19 154.792 23.19C154.209 23.19 153.652 23.114 153.12 22.962C152.613 22.7847 152.36 22.5567 152.36 22.278C152.36 21.974 152.436 20.72 152.588 18.516C152.74 16.312 152.816 14.7667 152.816 13.88C152.816 12.968 152.664 12.512 152.36 12.512C152.081 12.512 151.384 13.386 150.27 15.134C149.155 16.8567 148.534 18.06 148.408 18.744C148.306 19.428 148.256 20.1627 148.256 20.948Z" fill="white"/>
<path d="M141.233 23.19C140.245 23.19 139.497 22.9873 138.991 22.582C138.813 22.4047 138.725 21.9613 138.725 21.252C138.725 20.5173 138.75 19.542 138.801 18.326C138.142 19.9727 137.483 21.2013 136.825 22.012C136.191 22.7973 135.368 23.19 134.355 23.19C133.341 23.19 132.455 22.7213 131.695 21.784C130.935 20.8213 130.555 19.3267 130.555 17.3C130.555 15.248 131.125 13.4367 132.265 11.866C133.43 10.2953 134.95 9.51001 136.825 9.51001C137.635 9.51001 138.547 10.042 139.561 11.106C139.763 10.8273 140.118 10.498 140.625 10.118C141.157 9.71268 141.6 9.51001 141.955 9.51001C142.335 9.51001 142.525 9.99134 142.525 10.954C142.525 11.2073 142.449 11.7013 142.297 12.436C142.17 13.1707 142.018 13.7027 141.841 14.032C141.613 14.6147 141.499 16.6793 141.499 20.226C141.499 20.91 141.575 21.252 141.727 21.252C142.157 21.2267 142.753 20.6947 143.513 19.656C144.273 18.592 145.02 17.2367 145.755 15.59C146.515 13.9433 146.971 13.12 147.123 13.12C147.3 13.12 147.389 13.2213 147.389 13.424C147.389 14.1333 147.021 15.2607 146.287 16.806C144.285 21.062 142.601 23.19 141.233 23.19ZM136.597 11.03C135.887 11.03 135.127 11.562 134.317 12.626C133.531 13.6647 133.139 14.8933 133.139 16.312C133.139 17.7307 133.341 18.896 133.747 19.808C134.177 20.72 134.735 21.176 135.419 21.176C136.255 21.176 137.483 19.086 139.105 14.906C139.13 14.7033 139.155 14.3613 139.181 13.88C139.231 13.3733 139.269 12.9933 139.295 12.74C139.067 12.3347 138.661 11.9547 138.079 11.6C137.521 11.22 137.027 11.03 136.597 11.03Z" fill="white"/>
<path d="M124.175 13.082L126.265 12.854C126.468 12.854 126.645 12.968 126.797 13.196C126.949 13.424 127.025 13.6647 127.025 13.918C127.025 14.1713 126.936 15.0327 126.759 16.502C126.607 17.9713 126.531 19.1367 126.531 19.998C126.531 20.834 126.607 21.252 126.759 21.252C127.19 21.2267 127.785 20.6947 128.545 19.656C129.305 18.592 130.052 17.2367 130.787 15.59C131.547 13.9433 132.003 13.12 132.155 13.12C132.332 13.12 132.421 13.2213 132.421 13.424C132.421 14.1333 132.054 15.2607 131.319 16.806C129.318 21.062 127.633 23.19 126.265 23.19C125.277 23.19 124.53 22.9873 124.023 22.582C123.846 22.4047 123.757 21.3027 123.757 19.276C123.757 17.2493 123.972 15.514 124.403 14.07C122.934 14.07 121.908 13.6013 121.325 12.664C121.021 12.1827 120.869 11.638 120.869 11.03C120.869 10.422 120.996 9.89 121.249 9.434C121.502 8.978 121.857 8.75 122.313 8.75C122.794 8.75 123.225 9.00333 123.605 9.51C124.01 9.99133 124.213 10.536 124.213 11.144C124.213 11.752 124.036 12.36 123.681 12.968C123.782 13.044 123.947 13.082 124.175 13.082Z" fill="white"/>
<path d="M115.432 17.186C114.647 19.2633 113.912 20.7833 113.228 21.746C112.57 22.7087 111.696 23.19 110.606 23.19C109.517 23.19 108.592 22.7213 107.832 21.784C107.098 20.8467 106.73 19.352 106.73 17.3C106.73 15.248 107.3 13.4367 108.44 11.866C109.606 10.2953 111.126 9.51 113 9.51C113.38 9.51 113.836 9.67467 114.368 10.004C114.9 10.308 115.369 10.688 115.774 11.144C115.85 10.8907 116.218 10.498 116.876 9.96601C117.535 9.40867 118.042 9.13 118.396 9.13C118.776 9.13 118.966 9.67467 118.966 10.764C118.966 11.8533 118.738 12.816 118.282 13.652C118.029 15.3493 117.89 16.92 117.864 18.364C120.347 15.2227 121.664 13.5633 121.816 13.386C121.994 13.2087 122.146 13.12 122.272 13.12C122.526 13.12 122.652 13.2467 122.652 13.5C122.652 13.652 122.602 13.8167 122.5 13.994C121.69 15.1847 120.094 17.2747 117.712 20.264C117.56 23.2787 117.459 25.3307 117.408 26.42C117.282 29.6373 116.826 31.892 116.04 33.184C115.28 34.5013 113.912 35.16 111.936 35.16C111.075 35.16 110.264 34.894 109.504 34.362C108.77 33.8553 108.402 32.956 108.402 31.664C108.402 30.3973 108.884 29.0927 109.846 27.75C110.834 26.4073 112.62 24.3427 115.204 21.556L115.432 17.186ZM112.772 10.878C112.063 10.878 111.303 11.4353 110.492 12.55C109.707 13.6393 109.314 14.906 109.314 16.35C109.314 17.7687 109.517 18.934 109.922 19.846C110.353 20.7327 110.885 21.176 111.518 21.176C112.152 21.176 112.76 20.6567 113.342 19.618C113.925 18.5793 114.672 16.7933 115.584 14.26C115.635 13.3987 115.66 12.854 115.66 12.626C115.458 12.246 115.04 11.866 114.406 11.486C113.773 11.0807 113.228 10.878 112.772 10.878ZM115.09 23.342C112.202 26.458 110.758 28.9533 110.758 30.828C110.758 31.6893 110.91 32.3987 111.214 32.956C111.518 33.5133 111.936 33.792 112.468 33.792C113.279 33.792 113.849 33.3487 114.178 32.462C114.508 31.5753 114.748 29.7767 114.9 27.066L115.09 23.342Z" fill="white"/>
<path d="M102.862 23.19C102.305 23.19 101.785 23.1267 101.304 23C100.848 22.848 100.569 22.7087 100.468 22.582C100.215 22.278 100.088 20.7073 100.088 17.87C100.088 15.0073 100.405 11.1313 101.038 6.24201C101.57 2.21401 102.811 0.200012 104.762 0.200012C105.218 0.200012 105.547 0.453345 105.75 0.960011C105.953 1.44134 106.054 1.91001 106.054 2.36601C106.054 5.65935 105.053 9.34535 103.052 13.424C102.976 15.5267 102.938 17.3633 102.938 18.934C102.938 20.4793 103.077 21.252 103.356 21.252C103.787 21.2267 104.382 20.6947 105.142 19.656C105.902 18.592 106.649 17.2367 107.384 15.59C108.144 13.9433 108.6 13.12 108.752 13.12C108.929 13.12 109.018 13.2213 109.018 13.424C109.018 14.1333 108.651 15.2607 107.916 16.806C105.915 21.062 104.23 23.19 102.862 23.19ZM105.104 2.70801C105.104 1.89734 105.003 1.49201 104.8 1.49201C104.04 1.49201 103.483 4.64601 103.128 10.954C104.445 7.48335 105.104 4.73468 105.104 2.70801Z" fill="white"/>
<path d="M96.219 23.19C95.231 23.19 94.4837 22.9873 93.977 22.582C93.7997 22.4047 93.711 21.9613 93.711 21.252C93.711 20.5173 93.7364 19.542 93.787 18.326C93.1284 19.9727 92.4697 21.2013 91.811 22.012C91.1777 22.7973 90.3543 23.19 89.341 23.19C88.3277 23.19 87.441 22.7213 86.681 21.784C85.921 20.8213 85.541 19.3267 85.541 17.3C85.541 15.248 86.111 13.4367 87.251 11.866C88.4163 10.2953 89.9363 9.51001 91.811 9.51001C92.6217 9.51001 93.5337 10.042 94.547 11.106C94.7497 10.8273 95.1043 10.498 95.611 10.118C96.143 9.71268 96.5864 9.51001 96.941 9.51001C97.321 9.51001 97.511 9.99134 97.511 10.954C97.511 11.2073 97.435 11.7013 97.283 12.436C97.1563 13.1707 97.0043 13.7027 96.827 14.032C96.599 14.6147 96.485 16.6793 96.485 20.226C96.485 20.91 96.561 21.252 96.713 21.252C97.1437 21.2267 97.739 20.6947 98.499 19.656C99.259 18.592 100.006 17.2367 100.741 15.59C101.501 13.9433 101.957 13.12 102.109 13.12C102.286 13.12 102.375 13.2213 102.375 13.424C102.375 14.1333 102.008 15.2607 101.273 16.806C99.2717 21.062 97.587 23.19 96.219 23.19ZM91.583 11.03C90.8737 11.03 90.1137 11.562 89.303 12.626C88.5177 13.6647 88.125 14.8933 88.125 16.312C88.125 17.7307 88.3277 18.896 88.733 19.808C89.1637 20.72 89.721 21.176 90.405 21.176C91.241 21.176 92.4697 19.086 94.091 14.906C94.1163 14.7033 94.1417 14.3613 94.167 13.88C94.2177 13.3733 94.2557 12.9933 94.281 12.74C94.053 12.3347 93.6477 11.9547 93.065 11.6C92.5077 11.22 92.0137 11.03 91.583 11.03Z" fill="white"/>
<path d="M80.3044 4.41803C80.3044 3.96203 80.5451 3.56937 81.0264 3.24003C81.5078 2.9107 81.9384 2.74603 82.3184 2.74603C83.0024 2.74603 83.3444 3.1387 83.3444 3.92403C83.3444 4.70937 83.1418 5.39337 82.7364 5.97603C82.3311 6.53337 81.7611 6.81203 81.0264 6.81203C80.5451 6.81203 80.3044 6.01403 80.3044 4.41803ZM81.4064 23.19C80.4184 23.19 79.6711 22.9874 79.1644 22.582C78.9871 22.4047 78.8984 21.7714 78.8984 20.682C78.8984 19.5927 78.9744 17.7814 79.1264 15.248C79.3038 12.6894 79.4558 11.3087 79.5824 11.106C79.7091 10.9034 80.1018 10.5234 80.7604 9.96603C81.4191 9.4087 81.9258 9.13003 82.2804 9.13003C82.6604 9.13003 82.8504 9.61137 82.8504 10.574C82.8504 10.8274 82.7744 11.3214 82.6224 12.056C82.4958 12.7907 82.3438 13.3227 82.1664 13.652C81.8371 14.488 81.6724 16.6794 81.6724 20.226C81.6724 20.91 81.7484 21.252 81.9004 21.252C82.3311 21.2267 82.9264 20.6947 83.6864 19.656C84.4464 18.592 85.1938 17.2367 85.9284 15.59C86.6884 13.9434 87.1444 13.12 87.2964 13.12C87.4738 13.12 87.5624 13.2214 87.5624 13.424C87.5624 14.1334 87.1951 15.2607 86.4604 16.806C84.4591 21.062 82.7744 23.19 81.4064 23.19Z" fill="white"/>
<path d="M74.8274 13.766L75.1314 11.828C75.1314 11.5493 75.0427 11.296 74.8654 11.068C74.6881 10.84 74.4601 10.726 74.1814 10.726C73.2441 10.726 72.4334 11.4353 71.7494 12.854C71.0654 14.2473 70.7234 15.59 70.7234 16.882C70.7234 18.174 70.9894 19.2253 71.5214 20.036C72.0534 20.8213 72.6994 21.214 73.4594 21.214C74.2447 21.214 74.9414 21.0367 75.5494 20.682C76.1574 20.3273 76.7147 19.8207 77.2214 19.162C78.2854 17.7687 79.1974 16.1853 79.9574 14.412C80.1601 13.956 80.3121 13.6267 80.4134 13.424C80.5401 13.2213 80.6667 13.12 80.7934 13.12C80.9454 13.12 81.0214 13.2213 81.0214 13.424C81.0214 14.26 80.7301 15.2607 80.1474 16.426C79.5647 17.5913 79.0707 18.4907 78.6654 19.124C78.2854 19.732 77.7914 20.378 77.1834 21.062C75.9167 22.4807 74.3334 23.19 72.4334 23.19C70.9894 23.19 69.8874 22.6833 69.1274 21.67C68.3927 20.6313 68.0254 19.5293 68.0254 18.364C68.0254 15.476 68.6461 13.2847 69.8874 11.79C71.1541 10.27 72.7501 9.51001 74.6754 9.51001C75.4861 9.51001 76.1194 9.72534 76.5754 10.156C77.0567 10.5613 77.2974 11.03 77.2974 11.562C77.2974 12.55 77.1201 13.2847 76.7654 13.766C76.4107 14.2473 75.9801 14.488 75.4734 14.488C75.0427 14.488 74.8274 14.2473 74.8274 13.766Z" fill="white"/>
<path d="M66.0776 14.754C67.0909 14.4247 67.7876 14.146 68.1676 13.918C68.5729 13.6647 68.8769 13.4747 69.0796 13.348L69.5356 13.082C69.6623 13.006 69.7636 12.968 69.8396 12.968C70.0423 12.968 70.1436 13.082 70.1436 13.31C70.1436 13.538 69.7509 13.9433 68.9656 14.526C68.1803 15.0833 67.2049 15.59 66.0396 16.046C65.8623 18.174 65.1909 19.8967 64.0256 21.214C62.8603 22.5313 61.2009 23.19 59.0476 23.19C57.4769 23.19 56.2736 22.5693 55.4376 21.328C54.6016 20.0613 54.1836 18.592 54.1836 16.92C54.1836 15.2227 54.6776 13.6267 55.6656 12.132C56.6789 10.6373 57.9709 9.89001 59.5416 9.89001C60.2509 9.38334 61.0869 9.13 62.0496 9.13C63.0376 9.13 63.9496 9.64934 64.7856 10.688C65.6216 11.7267 66.0523 13.082 66.0776 14.754ZM63.6076 16.692L62.2396 16.768C61.0743 16.768 60.0863 16.426 59.2756 15.742C58.4649 15.0327 58.0596 14.26 58.0596 13.424C58.0596 12.588 58.1989 11.866 58.4776 11.258C57.3883 12.1193 56.8436 13.8167 56.8436 16.35C56.8436 17.566 57.0969 18.7313 57.6036 19.846C58.1103 20.9353 58.9083 21.48 59.9976 21.48C61.0869 21.48 61.9356 21.024 62.5436 20.112C63.1516 19.1747 63.5063 18.0347 63.6076 16.692ZM61.2516 10.384C60.8463 10.384 60.5296 10.574 60.3016 10.954C60.0736 11.3087 59.9596 11.7013 59.9596 12.132C59.9596 13.0693 60.2763 13.8293 60.9096 14.412C61.5683 14.9947 62.3283 15.286 63.1896 15.286H63.6456C63.5949 14.0447 63.3796 12.9173 62.9996 11.904C62.6449 10.8907 62.0623 10.384 61.2516 10.384Z" fill="white"/>
<path d="M48.654 5.558L48.844 4.57C48.7427 3.202 47.818 2.518 46.07 2.518C45.0567 2.518 44.17 2.88533 43.41 3.62C42.6753 4.32933 42.308 5.08933 42.308 5.9C42.308 6.68533 42.6373 7.382 43.296 7.99C43.98 8.57266 44.7907 9.10466 45.728 9.586C46.6907 10.042 47.6407 10.5487 48.578 11.106C49.5407 11.638 50.3513 12.3347 51.01 13.196C51.694 14.0573 52.036 15.0327 52.036 16.122C52.036 18.3767 51.1493 20.15 49.376 21.442C47.6027 22.734 45.69 23.38 43.638 23.38C41.586 23.38 39.876 23.0127 38.508 22.278C37.14 21.518 36.456 20.378 36.456 18.858C36.456 18.0473 36.7347 17.3127 37.292 16.654C37.8493 15.9953 38.6473 15.666 39.686 15.666C40.0913 15.666 40.4587 15.78 40.788 16.008C41.1173 16.236 41.32 16.54 41.396 16.92C41.396 17.3 41.168 17.49 40.712 17.49C39.8507 17.49 39.42 17.8573 39.42 18.592C39.4453 19.428 39.838 20.188 40.598 20.872C41.3833 21.556 42.4727 21.898 43.866 21.898C45.2847 21.898 46.488 21.4167 47.476 20.454C48.4893 19.4913 48.996 18.326 48.996 16.958C48.996 16.046 48.654 15.2227 47.97 14.488C47.286 13.7533 46.4627 13.1327 45.5 12.626C44.5373 12.094 43.562 11.562 42.574 11.03C41.6113 10.498 40.788 9.852 40.104 9.092C39.42 8.332 39.078 7.47066 39.078 6.508C39.078 4.81066 39.8 3.45533 41.244 2.442C42.7133 1.42866 44.3727 0.921997 46.222 0.921997C47.4633 0.921997 48.5907 1.17533 49.604 1.682C50.6173 2.18866 51.1367 2.96133 51.162 4C51.162 4.608 51.01 5.11466 50.706 5.52C50.402 5.92533 49.984 6.128 49.452 6.128C48.9453 6.128 48.6793 5.938 48.654 5.558Z" fill="white"/>
<defs>
<linearGradient id="paint0_linear_38_2" x1="15" y1="1" x2="15" y2="31" gradientUnits="userSpaceOnUse">
<stop stop-color="#877EFF"/>
<stop offset="0.461458" stop-color="#685DFF"/>
<stop offset="1" stop-color="#3121FF"/>
</linearGradient>
</defs>
</svg>
